<?xml version="1.0" standalone="no"?>
<!DOCTYPE svg PUBLIC "-//W3C//DTD SVG 20010904//EN"
 "http://www.w3.org/TR/2001/REC-SVG-20010904/DTD/svg10.dtd">
<svg version="1.0" xmlns="http://www.w3.org/2000/svg"
 width="236.000000pt" height="236.000000pt" viewBox="0 0 236.000000 236.000000"
 preserveAspectRatio="xMidYMid meet">
<metadata>
Created by potrace 1.11, written by Peter Selinger 2001-2013
</metadata>
<g transform="translate(0.000000,236.000000) scale(0.100000,-0.100000)"
fill="#000000" stroke="none">
<path d="M554 1766 c-51 -12 -123 -86 -151 -157 -35 -85 -341 -788 -370 -849
-31 -67 -35 -132 -10 -157 16 -17 67 -18 880 -17 474 0 879 3 901 8 45 9 124
83 142 133 l12 32 -110 0 c-61 0 -112 2 -114 4 -2 2 1 18 7 35 l11 31 121 3
121 3 12 30 12 30 -118 0 -118 0 12 30 12 30 121 3 c117 3 120 3 131 27 l12
25 -108 1 c-59 1 -112 1 -119 0 -17 -2 4 59 23 66 7 2 63 5 124 6 l111 2 35
79 c19 44 34 82 34 85 0 3 -49 4 -110 3 -60 -2 -110 -2 -110 1 0 4 45 112 87
207 13 30 29 68 35 83 l10 28 114 -3 114 -3 19 45 c39 91 38 130 -2 152 -27
15 -1712 18 -1773 4z m1386 -215 c71 -51 -1 -220 -118 -280 -63 -32 -149 -31
-188 2 -75 65 16 243 147 287 61 21 123 17 159 -9z m-303 12 c-5 -8 -15 -32
-66 -146 -16 -37 -40 -81 -51 -97 -40 -56 -133 -86 -198 -65 -29 9 -45 40 -37
74 5 22 13 30 37 35 55 11 68 8 65 -16 -1 -14 4 -23 15 -26 19 -4 53 45 80
113 9 22 25 61 37 88 l20 47 51 0 c28 0 49 -3 47 -7z m-576 -500 c45 -37 1
-115 -89 -160 -2 -1 1 -10 7 -21 16 -30 25 -114 12 -121 -6 -4 -32 -4 -58 -1
-46 5 -47 6 -51 44 -5 53 -20 88 -34 84 -7 -3 -24 -32 -38 -66 l-25 -62 -48 0
c-34 0 -48 4 -45 13 13 52 126 307 137 309 33 7 219 -8 232 -19z m667 8 c49
-26 52 -82 6 -92 -51 -11 -62 -9 -67 11 -8 32 -59 26 -95 -10 -36 -36 -64
-109 -50 -133 15 -27 63 -21 96 13 29 28 32 29 67 17 l37 -13 -27 -32 c-77
-91 -245 -106 -276 -24 -21 54 31 178 95 227 63 48 161 65 214 36z m-367 -3
c1 -20 -4 -176 -10 -285 -1 -21 -6 -23 -51 -23 -47 0 -50 2 -50 25 0 24 -3 25
-58 25 -52 0 -60 -3 -72 -25 -11 -21 -20 -25 -62 -25 -26 0 -48 2 -48 5 0 3
55 75 121 160 l122 155 53 0 c36 0 54 -4 55 -12z"/>
<path d="M1785 1489 c-31 -15 -66 -73 -72 -117 -6 -44 9 -56 57 -47 53 9 118
127 89 161 -13 16 -45 17 -74 3z"/>
<path d="M881 993 c-16 -36 -14 -43 17 -43 32 0 72 25 72 46 0 15 0 15 -47 19
-24 2 -33 -3 -42 -22z"/>
<path d="M1227 935 l-38 -55 36 0 c19 0 35 1 35 3 0 1 3 26 6 55 4 28 5 52 3
52 -2 -1 -21 -25 -42 -55z"/>
<path d="M2162 1501 c-13 -9 -32 -47 -26 -54 8 -8 67 3 82 15 13 11 16 37 5
39 -30 5 -53 5 -61 0z"/>
<path d="M2095 1360 c-8 -16 -15 -31 -15 -35 0 -12 67 -4 88 11 24 16 30 44
10 45 -7 0 -25 2 -41 4 -22 3 -30 -2 -42 -25z"/>
</g>
</svg>
