<svg clip-rule="evenodd" fill-rule="evenodd" stroke-linejoin="round" stroke-miterlimit="2" viewBox="0 0 1079 731" xmlns="http://www.w3.org/2000/svg"><path d="m8.199 361.936h190.613v2h-190.613z" fill="#3f3d56" transform="matrix(-1 0 0 1 1078.28 0)"/><path d="m359.14 361.936h190.612v2h-190.612z" fill="#3f3d56" transform="matrix(-1 0 0 1 1078.28 0)"/><path d="m797.372 361.936h190.612v2h-190.612z" fill="#3f3d56" transform="matrix(-1 0 0 1 1078.28 0)"/><circle cx="26.904" cy="362.936" fill="#4285f4" r="11.579" transform="matrix(-1 0 0 1 1078.28 0)"/><circle cx="454.446" cy="362.936" fill="#4285f4" r="11.579" transform="matrix(-1 0 0 1 1078.28 0)"/><circle cx="969.279" cy="362.936" fill="#4285f4" r="11.579" transform="matrix(-1 0 0 1 1078.28 0)"/><path d="m507.014 251.921c12.784 38.473 8.294 74.598 8.294 74.598s-25.216-26.254-38-64.728c-12.783-38.474-8.294-74.598-8.294-74.598s25.217 26.254 38 64.728z" fill="#4285f4" fill-rule="nonzero" transform="matrix(-1 0 0 1 1139.14 -84.7917)"/><path d="m523.603 251.921c-12.784 38.473-8.295 74.598-8.295 74.598s25.217-26.254 38.001-64.728c12.783-38.474 8.294-74.598 8.294-74.598s-25.217 26.254-38 64.728z" fill="#4285f4" fill-rule="nonzero" transform="matrix(-1 0 0 1 1139.14 -84.7917)"/><path d="m528.751 252.337c.857 40.532-14.096 73.722-14.096 73.722s-16.343-32.528-17.2-73.061c-.856-40.533 14.097-73.722 14.097-73.722s16.343 32.528 17.199 73.061z" fill="#3f3d56" fill-rule="nonzero" transform="matrix(-1 0 0 1 1139.14 -84.7917)"/><g transform="matrix(-1 0 0 1 1078.28 0)"><circle cx="452.241" cy="131.723" fill="#4285f4" r="3.968"/><circle cx="444.526" cy="163.467" fill="#4285f4" r="2.204"/><circle cx="417.632" cy="141.643" fill="#3f3d56" r="2.204"/><circle cx="495.448" cy="120.26" fill="#3f3d56" r="2.204"/><circle cx="429.095" cy="162.365" fill="#3f3d56" r="2.204"/><circle cx="475.388" cy="149.579" fill="#3f3d56" r="2.204"/><circle cx="430.418" cy="194.77" fill="#3f3d56" r="2.204"/><circle cx="477.592" cy="182.204" fill="#3f3d56" r="2.204"/><circle cx="456.209" cy="184.409" fill="#4285f4" r="2.204"/><path d="m468.178 266.779-.506-1.936 118.27-30.89-49.209-188.405-213.783 55.838 36.47 139.628-1.936.506-36.974-141.564 217.653-56.849.253.968 49.967 191.307z" fill="#3f3d56" fill-rule="nonzero"/></g><path d="m942.017 256.615c17.76 53.45 11.523 103.636 11.523 103.636s-35.033-36.473-52.793-89.923-11.522-103.637-11.522-103.637 35.032 36.474 52.792 89.924z" fill="#4285f4" fill-rule="nonzero" transform="matrix(-1 0 0 1 1139.14 -84.7917)"/><path d="m965.062 256.615c-17.76 53.45-11.522 103.636-11.522 103.636s35.032-36.473 52.79-89.923c17.76-53.45 11.52-103.637 11.52-103.637s-35.028 36.474-52.788 89.924z" fill="#4285f4" fill-rule="nonzero" transform="matrix(-1 0 0 1 1139.14 -84.7917)"/><path d="m972.215 257.193c1.191 56.311-19.583 102.419-19.583 102.419s-22.704-45.189-23.895-101.5c-1.19-56.311 19.584-102.419 19.584-102.419s22.704 45.189 23.894 101.5z" fill="#3f3d56" fill-rule="nonzero" transform="matrix(-1 0 0 1 1139.14 -84.7917)"/><circle cx="889.614" cy="122.635" fill="#4285f4" r="5.513" transform="matrix(-1 0 0 1 1078.28 0)"/><circle cx="878.895" cy="166.736" fill="#4285f4" r="3.063" transform="matrix(-1 0 0 1 1078.28 0)"/><circle cx="841.532" cy="136.416" fill="#3f3d56" r="3.063" transform="matrix(-1 0 0 1 1078.28 0)"/><circle cx="949.64" cy="106.71" fill="#3f3d56" r="3.063" transform="matrix(-1 0 0 1 1078.28 0)"/><circle cx="857.458" cy="165.204" fill="#3f3d56" r="3.063" transform="matrix(-1 0 0 1 1078.28 0)"/><circle cx="921.771" cy="147.442" fill="#3f3d56" r="3.063" transform="matrix(-1 0 0 1 1078.28 0)"/><circle cx="859.295" cy="210.224" fill="#3f3d56" r="3.063" transform="matrix(-1 0 0 1 1078.28 0)"/><circle cx="924.833" cy="192.767" fill="#3f3d56" r="3.063" transform="matrix(-1 0 0 1 1078.28 0)"/><circle cx="895.127" cy="195.83" fill="#4285f4" r="3.063" transform="matrix(-1 0 0 1 1078.28 0)"/><path d="m911.656 309.886-.506-1.935 164.68-43.014-68.56-262.497-297.75 77.771 50.765 194.356-1.936.506-51.27-196.292 301.621-78.781.26.967 69.32 265.4z" fill="#3f3d56" fill-rule="nonzero" transform="matrix(-1 0 0 1 1078.28 0)"/><path d="m160.286 296.3c3.795 11.843 5.183 24.325 4.081 36.712-16.986-18.569-25.278-43.524-22.782-68.565 8.296 9.264 14.654 20.095 18.701 31.853z" fill="#4285f4" fill-rule="nonzero" transform="matrix(-1 0 0 1 1139.14 -84.7917)"/><path d="m168.449 296.3c-3.795 11.843-5.183 24.325-4.082 36.712 16.987-18.569 25.279-43.524 22.783-68.565-8.296 9.264-14.655 20.095-18.701 31.853z" fill="#4285f4" fill-rule="nonzero" transform="matrix(-1 0 0 1 1139.14 -84.7917)"/><path d="m170.983 296.505c.131 12.435-2.228 24.771-6.937 36.28-10.748-22.755-11.304-49.045-1.527-72.234 5.191 11.3 8.069 23.525 8.464 35.954z" fill="#3f3d56" fill-rule="nonzero" transform="matrix(-1 0 0 1 1139.14 -84.7917)"/><path d="m114.146 272.979-.506-1.936 90.93-23.75-37.81-144.759-164.32 42.918 28.05 107.39-1.936.506-28.554-109.326 168.19-43.929 38.82 148.63z" fill="#3f3d56" fill-rule="nonzero" transform="matrix(-1 0 0 1 1078.28 0)"/><circle cx="922.071" cy="87.706" fill="#4285f4" r="13.361" transform="matrix(-1 0 0 1 1078.28 0)"/><circle cx="860.612" cy="94.832" fill="#3f3d56" r="7.126" transform="matrix(-1 0 0 1 1078.28 0)"/><circle cx="103.505" cy="410.417" fill="#3f3d56" r="19" transform="matrix(-1 0 0 1 1078.28 0)"/><circle cx="454.446" cy="410.417" fill="#3f3d56" r="19" transform="matrix(-1 0 0 1 1078.28 0)"/><circle cx="892.677" cy="410.417" fill="#3f3d56" r="19" transform="matrix(-1 0 0 1 1078.28 0)"/><path d="m714.681 815.208h-.931c-48.196 0-93.939-2.396-128.804-6.748l-1.406-.184c-.954-.125-1.896-.251-2.826-.377-5.472-.722-10.828-1.532-15.913-2.406-25.25-4.396-38.051-9.636-38.051-15.575 0-4.926 8.396-9.219 25.669-13.126 8.311-1.878 18.57-3.609 30.493-5.146 2.172-.29 4.408-.561 6.695-.821 34.152-3.996 78.242-6.197 124.143-6.197 9.073 0 18.255.088 27.289.26 76.921 1.475 159.711 9.935 159.711 25.03 0 9.016-29.934 14.834-55.046 18.128-34.956 4.584-81.488 7.128-131.023 7.162zm-.931-48.58c-45.826 0-89.833 2.196-123.914 6.184-2.276.26-4.498.532-6.664.817-11.865 1.529-22.062 3.249-30.311 5.114-21.762 4.921-24.111 9.455-24.111 11.175 0 2.186 3.546 7.886 36.392 13.605 5.057.869 10.387 1.675 15.839 2.394.93.128 1.869.251 2.818.375l1.402.185c34.778 4.341 80.433 6.731 128.549 6.731h.93c110.106-.076 184.07-12.103 184.07-23.29 0-9.835-59.006-21.138-157.749-23.03-9.022-.173-18.19-.26-27.251-.26z" fill="#3f3d56" fill-rule="nonzero" transform="matrix(-1 0 0 1 1139.14 -84.7917)"/><path d="m623.487 768.674-1.073-.402c-.236-.089-23.708-9.082-34.704-29.474s-5.612-44.945-5.556-45.19l.253-1.118 1.073.402c.236.089 23.708 9.082 34.704 29.473 10.996 20.393 5.612 44.946 5.556 45.191zm-34.016-30.825c9.296 17.241 27.845 26.079 32.545 28.097.893-5.038 3.695-25.407-5.593-42.631-9.287-17.223-27.843-26.075-32.545-28.097-.894 5.04-3.695 25.407 5.593 42.631z" fill="#3f3d56" fill-rule="nonzero" transform="matrix(-1 0 0 1 1139.14 -84.7917)"/><path d="m596.113 731.645c19.761 11.889 27.371 35.503 27.371 35.503s-24.428 4.339-44.188-7.55c-19.761-11.889-27.371-35.503-27.371-35.503s24.428-4.339 44.188 7.55z" fill="#4285f4" fill-rule="nonzero" transform="matrix(-1 0 0 1 1139.14 -84.7917)"/><path d="m749.851 347.256s-16.544-2.363-24.816 28.362c-8.272 30.724-10.636 33.088-10.636 33.088s48.451 7.09 49.632 4.726c1.182-2.363 10.636-59.085-14.18-66.176z" fill="#2f2e41" fill-rule="nonzero" transform="matrix(-1 0 0 1 1139.14 -84.7917)"/><circle cx="679.535" cy="218.741" fill="#ffb8b8" r="31.906" transform="matrix(-1 0 0 1 1078.28 0)"/><path d="m726.216 329.531s10.636 27.179 7.091 30.724 43.723 8.272 43.723 8.272 3.545-17.725-10.635-28.361c0 0-5.909-17.726-4.727-21.271s-35.452 10.636-35.452 10.636z" fill="#ffb8b8" fill-rule="nonzero" transform="matrix(-1 0 0 1 1139.14 -84.7917)"/><path d="m754.578 341.348c-12.113 4.574-23.026 11.849-31.907 21.271-14.18 15.362-21.271 20.089-21.271 20.089s-16.544 5.908-10.635 34.27c2.954 14.18.886 30.133-1.92 42.541-4.287 19.256-6.418 38.929-6.352 58.656v12.247s-108.718 228.071-72.085 243.434c36.634 15.362 69.722 20.089 72.085 16.544 2.363-3.546 44.905-187.893 44.905-187.893s11.817 197.346 41.36 197.346 77.993-8.272 77.993-8.272l-60.267-236.343s14.18-40.178-21.271-68.539l-4.727-12.999c19.605.01 28.566-124.07 8.272-134.716 0 0-4.727-3.545-14.18 2.364z" fill="#2f2e41" fill-rule="nonzero" transform="matrix(-1 0 0 1 1139.14 -84.7917)"/><path d="m725.035 405.16-16.544 43.724-38.997 81.538s-17.726 53.177-3.545 53.177 24.816-50.813 24.816-50.813l43.723-68.54 24.816-61.449z" fill="#ffb8b8" fill-rule="nonzero" transform="matrix(-1 0 0 1 1139.14 -84.7917)"/><ellipse cx="585.589" cy="703.244" fill="#2f2e41" rx="20.68" ry="11.817" transform="matrix(-1 0 0 1 1078.28 0)"/><ellipse cx="743.938" cy="703.244" fill="#2f2e41" rx="20.68" ry="11.817" transform="matrix(-1 0 0 1 1078.28 0)"/><path d="m752.714 258.79c-1.643.003-3.281.166-4.892.487-2.911-1.413-6.105-2.149-9.341-2.153h-.847c-16.345 0-29.595 14.79-29.595 33.035h5.477l.884-6.732 1.297 6.732h4.562c-1.419 5.402-2.131 10.965-2.119 16.55v33.624h8.28l4.794-12.458-1.198 12.458h53.223l4.358-11.325-1.089 11.325h5.992v-26.401c0-30.454-17.813-55.142-39.786-55.142z" fill="#2f2e41" fill-rule="nonzero" transform="matrix(-1 0 0 1 1139.14 -84.7917)"/></svg>