<svg clip-rule="evenodd" fill-rule="evenodd" stroke-linejoin="round" stroke-miterlimit="2" viewBox="0 0 447 119" xmlns="http://www.w3.org/2000/svg"><path d="m391.174 351.063h-167.916c-6.627 0-9.665-5.381-6.782-12.007l41.131-94.513c2.884-6.627 10.605-12.007 17.232-12.007h167.916c6.627 0 9.666 5.38 6.782 12.007l-9.856 22.648c-1.73-.786-3.999-1.179-6.807-1.179h-29.812l-22.301 51.539h27.492c1.173 0 3.653-.234 7.441-.703.911-.112 1.761-.246 2.552-.402l-9.84 22.61c-2.884 6.626-10.605 12.006-17.232 12.007zm-74.702-85.051h15.961l-12.124 28.02c-2.545 5.882-5.004 10.359-7.375 13.429-2.372 3.071-5.595 5.672-9.67 7.805-4.076 2.133-8.574 3.199-13.496 3.199-5.203 0-8.93-.703-11.181-2.109s-3.57-3.463-3.957-6.17c-.388-2.707.14-6.053 1.583-10.037l16.12-2.074c-.96 2.273-1.491 3.961-1.593 5.062-.101 1.102.146 1.992.743 2.672.416.445 1.187.668 2.312.668 1.781 0 3.374-.662 4.779-1.986 1.405-1.325 2.787-3.557 4.146-6.698zm13.409 25.805c3.64-8.414 8.819-14.965 15.534-19.653 6.716-4.687 14.258-7.031 22.625-7.031 8.578 0 14.191 2.303 16.839 6.908 2.648 4.606 2.177 11.057-1.413 19.354-2.607 6.023-5.758 10.963-9.453 14.818-3.696 3.856-7.924 6.856-12.684 9-4.76 2.145-9.999 3.217-15.718 3.217-5.812 0-10.222-.926-13.23-2.777-3.007-1.852-4.827-4.782-5.46-8.789-.633-4.008.353-9.024 2.96-15.047zm15.895.07c-2.251 5.203-2.902 8.942-1.952 11.215s3.089 3.41 6.417 3.41c3.422 0 6.552-1.113 9.39-3.34 2.839-2.226 5.505-6.222 8-11.988 2.099-4.852 2.655-8.397 1.666-10.635-.988-2.238-3.158-3.357-6.51-3.357-3.211 0-6.281 1.137-9.21 3.41s-5.529 6.035-7.801 11.285zm63.964 14.59h-8.121l4.518-10.441h8.086c2.789 0 4.54.462 5.253 1.388s.739 2.151.08 3.674c-.71 1.641-1.838 2.947-3.384 3.92-1.545.973-3.689 1.459-6.432 1.459zm19.993-16.428-.059.136c-.068-.019-.135-.037-.204-.056.088-.026.176-.053.263-.08zm-12.426-3.822h-6.926l4.229-9.773h7.032c2.414 0 3.925.421 4.532 1.265.608.844.587 2.016-.062 3.516-.7 1.617-1.721 2.853-3.064 3.709-1.343.855-3.256 1.283-5.741 1.283z" transform="translate(-215.386617798 -232.536)"/><g fill-rule="nonzero"><path d="m.076 0v-.716h.369c.068 0 .12.006.157.018.036.011.065.033.087.065s.033.07.033.116c0 .04-.008.074-.025.103s-.04.052-.07.07c-.019.011-.045.021-.078.028.027.009.046.018.058.026.008.006.02.019.035.038.016.019.026.034.031.044l.107.208h-.25l-.118-.219c-.015-.028-.028-.046-.04-.055-.016-.011-.034-.017-.054-.017h-.02v.291zm.222-.426h.094c.01 0 .029-.003.058-.01.015-.002.027-.01.036-.022s.014-.026.014-.042c0-.023-.007-.04-.022-.053-.015-.012-.042-.018-.082-.018h-.098z" transform="matrix(72 0 -29.849904 72 210.15045352 85.015)"/><path d="m.514-.118h-.252l-.035.118h-.226l.269-.716h.241l.269.716h-.231zm-.047-.155-.079-.257-.078.257z" transform="matrix(72 0 -29.849904 72 266.15445352 85.015)"/><path d="m.55-.292.194.058c-.013.054-.034.1-.062.136-.028.037-.063.064-.104.083-.042.018-.094.028-.159.028-.077 0-.141-.012-.19-.034-.05-.023-.092-.063-.128-.12s-.054-.13-.054-.218c0-.119.032-.21.095-.274.063-.063.152-.095.267-.095.09 0 .161.018.213.055.051.036.09.092.115.168l-.195.043c-.007-.022-.014-.038-.022-.048-.012-.017-.027-.03-.045-.039s-.038-.014-.06-.014c-.051 0-.089.021-.116.061-.02.03-.03.077-.03.141 0 .08.012.134.036.163.024.03.058.045.102.045.042 0 .074-.012.096-.036.021-.024.037-.058.047-.103z" transform="matrix(72 0 -29.849904 72 320.85745352 85.015)"/><path d="m618.286 305.879h27.492l-4.839 11.672h-43.453l4.855-11.71h15.961zm20.198-20.672h13.157l-4.358 10.512h-24.785l-.009.022h-15.961l4.364-10.525h27.59zm18.487-8.191h-26.719-15.961l4.562-11.004h42.68z" transform="translate(-215.386617798 -232.536)"/></g></svg>